<svg width="1088" height="1088" viewBox="0 0 1088 1088" fill="none" xmlns="http://www.w3.org/2000/svg">
<rect width="1088" height="1088" rx="544" fill="white"/>
<g clip-path="url(#clip0_40_2)">
<path opacity="0.1" d="M417.671 810.699C454.536 810.699 484.422 805.91 484.422 800.002C484.422 794.095 454.536 789.306 417.671 789.306C380.806 789.306 350.92 794.095 350.92 800.002C350.92 805.91 380.806 810.699 417.671 810.699Z" fill="#C6005C"/>
<path opacity="0.1" d="M780.518 811C826.52 811 863.812 806.211 863.812 800.303C863.812 794.396 826.52 789.606 780.518 789.606C734.516 789.606 697.224 794.396 697.224 800.303C697.224 806.211 734.516 811 780.518 811Z" fill="#C6005C"/>
<path opacity="0.1" d="M175.481 507.159H245.006V601.707H180.571C180.4 602.677 180.235 603.655 180.057 604.632H245.006V680.883C244.89 680.849 244.787 680.808 244.677 680.767C242.841 680.042 241.019 679.277 239.197 678.457L238.032 677.93C236.206 677.069 234.379 676.158 232.552 675.196C231.915 674.861 231.278 674.513 230.648 674.157C220.506 668.489 211.293 661.307 203.328 652.86C203.095 652.634 202.876 652.395 202.643 652.176C201.533 650.973 200.444 649.757 199.389 648.513L198.224 647.146C196.978 645.621 195.772 644.056 194.601 642.47C194.429 642.238 194.265 642.006 194.087 641.787C189.323 635.196 185.367 628.06 182.304 620.53C182.208 620.305 182.126 620.059 182.037 619.847C181.096 617.432 180.263 614.994 179.536 612.533C179.221 611.501 178.92 610.483 178.66 609.41C178.564 609.095 178.482 608.788 178.406 608.48C174.515 593.327 174.056 577.586 174.056 561.955C174.056 560.13 174.056 558.298 174.056 556.487C174.056 550.164 174.132 543.801 174.241 537.444C174.241 535.797 174.31 534.157 174.344 532.503C174.44 528.306 174.577 524.109 174.755 519.913C174.796 518.744 174.851 517.582 174.912 516.42C174.912 515.75 174.947 515.08 175.015 514.411C175.18 511.977 175.317 509.565 175.481 507.159Z" fill="#C6005C"/>
<path opacity="0.1" d="M245.006 401.886H206.87C213.069 392.205 219.842 382.902 227.154 374.027C232.819 367.083 238.799 360.316 245.006 353.795V401.886Z" fill="#C6005C"/>
<path opacity="0.1" d="M245.006 404.812V504.233H175.7C175.7 503.946 175.748 503.652 175.769 503.365C175.83 502.579 175.892 501.793 175.961 501.014C176.036 500.098 176.118 499.175 176.207 498.28C176.296 497.384 176.392 496.291 176.495 495.3C176.598 494.309 176.694 493.304 176.81 492.313C176.926 491.322 177.029 490.331 177.152 489.346C177.276 488.362 177.385 487.364 177.516 486.38C177.618 485.56 177.728 484.746 177.838 483.926C177.995 482.771 178.159 481.609 178.338 480.461C178.338 480.29 178.386 480.112 178.413 479.948C179.663 471.542 181.367 463.21 183.517 454.987C185.767 446.361 188.64 437.909 192.114 429.698C195.806 421.107 200.129 412.801 205.047 404.846L245.006 404.812Z" fill="#C6005C"/>
<path opacity="0.1" d="M261.604 507.152V601.706H410.101V507.152H261.604ZM261.604 604.625V685.824C262.454 686.002 263.297 686.173 264.132 686.317C265.269 686.535 266.4 686.733 267.558 686.904C267.777 686.939 268.003 686.973 268.243 686.993C268.695 687.068 269.161 687.13 269.613 687.191C270.757 687.349 271.894 687.478 273.038 687.581C273.579 687.636 274.127 687.684 274.675 687.725L275.997 687.827C276.717 687.882 277.429 687.923 278.135 687.943C278.573 687.943 279.011 687.984 279.464 687.998C279.806 687.998 280.149 687.998 280.505 687.998C280.861 687.998 281.368 687.998 281.8 687.998C282.389 687.998 282.978 687.998 283.56 687.998H284.348C284.937 687.998 285.526 687.998 286.108 687.943H286.15C286.554 687.943 286.965 687.943 287.376 687.889C287.49 687.895 287.604 687.895 287.718 687.889C288.061 687.889 288.403 687.889 288.732 687.841H288.972L291.267 687.663C292.02 687.595 292.781 687.506 293.548 687.424L295.11 687.239C301.464 686.351 307.748 685.017 313.914 683.248C327.766 679.393 341.316 674 355.161 670.049C373.061 664.957 392.838 662.456 410.136 668.682V604.625H261.604ZM410.101 401.886V276.007C393.843 275.831 377.63 277.728 361.854 281.652C324.252 291.078 290.513 311.521 261.604 337.631V401.879H269.058V404.798H261.604V504.233H410.101V404.805H299.659V401.886H410.101ZM600.838 359.366C591.535 359.038 582.287 356.099 573.922 351.56C557.927 342.88 545.151 329.477 530.874 318.165C501.212 294.605 464.425 280.388 426.686 276.861V401.886H638.673L639.2 401.333L600.838 359.366ZM620.149 355.949L640.625 378.367V350.07C633.768 350.918 627.76 352.934 620.177 355.921L620.149 355.949ZM640.625 705.988V604.625H596.995C596.878 604.194 596.762 603.757 596.625 603.32C596.755 603.757 596.865 604.194 596.988 604.625H426.714V677.93C428.33 679.126 429.926 680.384 431.509 681.662C433.215 683.029 434.9 684.471 436.592 685.886L438.298 687.294C439.113 687.977 439.935 688.661 440.764 689.303C442.408 690.634 444.068 691.946 445.744 693.24C446.573 693.924 447.422 694.539 448.265 695.181C461.642 705.386 475.753 714.595 490.484 722.733C493.786 724.556 497.118 726.335 500.479 728.071C502.719 729.213 504.973 730.347 507.234 731.448C510.631 733.102 514.057 734.697 517.509 736.232C549.341 750.489 583 760.272 617.525 765.301C625.193 766.431 632.891 767.32 640.618 767.967V705.981H641.303L640.625 705.988ZM426.714 404.805V504.233H640.653V404.805H426.714ZM426.714 507.152V601.706H640.653V507.152H426.714ZM657.258 349.947V381.511L683.392 352.9C674.733 351.506 666.022 350.51 657.258 349.913V349.947ZM657.258 507.186V601.706H865.34V507.152L657.258 507.186ZM864.579 713.492L865.312 604.625H657.258V769.054C670.661 769.616 684.084 769.456 697.47 768.575H697.703C704.097 768.174 710.461 767.591 716.795 766.826H716.939C750.732 762.901 783.776 754.104 815.037 740.709M905.463 522.722C904.682 520.883 903.867 519.058 903.038 517.254C901.49 513.836 899.852 510.514 898.167 507.193H881.931V601.706H922.979C922.959 574.941 916.17 547.601 905.483 522.687L905.463 522.722ZM881.931 604.659V698.298C893.495 687.239 903.264 674.588 910.299 660.125C918.759 642.709 922.63 623.852 922.945 604.646L881.931 604.659ZM881.931 479.634V504.24H896.646C892.195 495.769 887.29 487.544 881.952 479.6L881.931 479.634ZM740.813 368.498C739.73 368.087 738.648 367.671 737.559 367.267C726.071 363.035 714.332 359.515 702.409 356.728L662.416 400.519L661.649 401.333L662.163 401.893H804.501C784.677 388.278 763.306 377.057 740.833 368.463L740.813 368.498ZM808.673 404.839H660.176L657.258 407.505V504.233H682.837H682.879H865.367V457.379C848.859 437.459 829.806 419.784 808.694 404.805L808.673 404.839Z" fill="#C6005C"/>
<path opacity="0.1" d="M245.006 454.96V504.233H175.7C175.7 503.946 175.748 503.652 175.769 503.365C175.83 502.579 175.892 501.793 175.961 501.014C176.036 500.098 176.118 499.175 176.207 498.28C176.296 497.385 176.392 496.291 176.495 495.3C176.598 494.309 176.694 493.304 176.81 492.313C176.926 491.322 177.029 490.331 177.152 489.347C177.276 488.362 177.385 487.365 177.516 486.38C177.618 485.56 177.728 484.747 177.838 483.927C177.995 482.771 178.159 481.609 178.338 480.461C178.338 480.29 178.386 480.113 178.413 479.949C179.663 471.543 181.367 463.21 183.517 454.987L245.006 454.96Z" fill="#C6005C"/>
<path opacity="0.1" d="M175.481 507.159H245.006V601.707H180.571C180.4 602.677 180.235 603.655 180.057 604.632H245.006V680.883C244.89 680.849 244.787 680.808 244.677 680.767C242.841 680.042 241.019 679.277 239.197 678.457L238.032 677.93C236.206 677.069 234.379 676.158 232.552 675.196C231.915 674.861 231.278 674.513 230.648 674.157C220.506 668.489 211.293 661.307 203.328 652.86C203.095 652.634 202.876 652.395 202.643 652.176C201.533 650.973 200.444 649.757 199.389 648.513L198.224 647.146C196.978 645.621 195.772 644.056 194.601 642.47C194.429 642.238 194.265 642.006 194.087 641.787C189.323 635.196 185.367 628.06 182.304 620.53C182.208 620.305 182.126 620.059 182.037 619.847C181.096 617.432 180.263 614.994 179.536 612.533C179.221 611.501 178.92 610.483 178.66 609.41C178.564 609.095 178.482 608.788 178.406 608.48C174.515 593.327 174.056 577.586 174.056 561.955C174.056 560.13 174.056 558.298 174.056 556.487C174.056 550.164 174.132 543.801 174.241 537.444C174.241 535.797 174.31 534.157 174.344 532.503C174.44 528.306 174.577 524.109 174.755 519.913C174.796 518.744 174.851 517.582 174.912 516.42C174.912 515.75 174.947 515.08 175.015 514.411C175.18 511.977 175.317 509.565 175.481 507.159Z" fill="#C6005C"/>
<path opacity="0.1" d="M313.88 419.042V504.233H261.604V419.042H269.058V390.199H299.652V419.042H313.88Z" fill="#C6005C"/>
<path opacity="0.1" d="M313.88 507.152H261.611V601.7H313.88V507.152Z" fill="#C6005C"/>
<path opacity="0.1" d="M261.604 604.632H313.88V683.234C307.714 685.002 301.43 686.333 295.076 687.219L293.514 687.41C292.747 687.499 291.986 687.574 291.233 687.649C290.479 687.725 289.698 687.779 288.938 687.827H288.698C288.369 687.827 288.013 687.868 287.691 687.875H287.342C286.931 687.875 286.52 687.916 286.108 687.93C285.526 687.964 284.944 687.971 284.348 687.977C284.094 687.977 283.855 687.977 283.601 687.977C283.012 687.977 282.43 687.977 281.841 687.977H280.546C280.197 687.977 279.861 687.977 279.498 687.977L278.176 687.93C277.491 687.93 276.751 687.854 276.038 687.807L274.723 687.711L273.086 687.56C271.935 687.458 270.791 687.328 269.661 687.171L268.291 686.979L267.605 686.884C266.461 686.706 265.331 686.515 264.18 686.296C263.338 686.152 262.502 685.975 261.652 685.804L261.604 604.632Z" fill="#C6005C"/>
<path opacity="0.1" d="M640.653 408.981H597.55V504.226H640.653V408.981Z" fill="#C6005C"/>
<path opacity="0.1" d="M640.66 507.152V601.707H426.714V560.923H540.671V584.982H597.55V507.152H640.66Z" fill="#C6005C"/>
<path opacity="0.1" d="M641.338 706.008H640.653V768.036C632.935 767.384 625.239 766.498 617.567 765.377C583.024 760.331 549.351 750.527 517.509 736.246C508.316 732.118 499.31 727.611 490.491 722.727C475.76 714.584 461.647 705.375 448.265 695.175C444.904 692.605 441.586 689.976 438.312 687.287C436.044 685.421 433.79 683.508 431.509 681.648C429.927 680.37 428.331 679.113 426.714 677.91V604.632H596.981C596.865 604.195 596.748 603.757 596.625 603.327C596.755 603.757 596.879 604.195 596.995 604.632H640.653V705.967C640.886 705.974 641.112 705.995 641.338 706.008Z" fill="#C6005C"/>
<path opacity="0.1" d="M753.068 401.886H724.981V393.178H737.573V367.24C738.664 367.636 739.751 368.044 740.833 368.463V393.178H753.068V401.886Z" fill="#C6005C"/>
<path opacity="0.1" d="M820.737 504.233H682.851C682.851 504.233 682.852 504.233 682.899 504.267L682.838 504.233H657.258V408.988H664.506V479.388H697.628V437.695H724.989V404.812H753.075V437.722H780.436V479.415H820.737V504.233Z" fill="#C6005C"/>
<path opacity="0.1" d="M657.258 507.152V601.707H820.737V507.152H657.258ZM865.114 713.007L865.34 638.164H820.737V604.673H657.258V769.054C670.661 769.616 684.085 769.456 697.47 768.576H697.703C704.097 768.175 710.461 767.591 716.795 766.826H716.939C750.733 762.902 783.777 754.105 815.037 740.709" fill="#C6005C"/>
<path opacity="0.1" d="M884.836 604.632H922.973C922.637 623.831 918.773 642.689 910.32 660.104C903.284 674.574 893.509 687.226 881.959 698.278V638.13H884.836V604.632Z" fill="#C6005C"/>
<path opacity="0.1" d="M922.993 601.707H884.836V522.688H905.483C916.17 547.601 922.959 574.941 922.993 601.707Z" fill="#C6005C"/>
<path opacity="0.1" d="M640.66 435.46H617.567V465.322H640.66V435.46Z" fill="#C6005C"/>
<path opacity="0.1" d="M640.66 497.357H617.567V504.233H640.66V497.357Z" fill="#C6005C"/>
<path opacity="0.1" d="M640.66 507.152H617.567V527.212H640.66V507.152Z" fill="#C6005C"/>
<path opacity="0.1" d="M640.66 559.254H617.567V589.116H640.66V559.254Z" fill="#C6005C"/>
<path opacity="0.1" d="M640.66 621.152H617.567V651.014H640.66V621.152Z" fill="#C6005C"/>
<path opacity="0.1" d="M640.653 705.967C640.886 705.967 641.112 705.967 641.338 706.008H640.653V712.945H617.567V683.049H640.653V705.967Z" fill="#C6005C"/>
<path opacity="0.1" d="M640.653 744.933V768.001C632.935 767.35 625.239 766.463 617.567 765.342V744.933H640.653Z" fill="#C6005C"/>
<path opacity="0.1" d="M525.682 599.513H426.714V601.707H525.682V599.513Z" fill="#C6005C"/>
<path opacity="0.1" d="M525.682 604.625H426.714V613.032H525.682V604.625Z" fill="#C6005C"/>
<path opacity="0.1" d="M525.682 640.591H426.714V654.11H525.682V640.591Z" fill="#C6005C"/>
<path opacity="0.1" d="M525.675 681.669V695.188H448.265C444.904 692.628 441.583 689.998 438.304 687.301C436.037 685.435 433.79 683.521 431.502 681.669H525.675Z" fill="#C6005C"/>
<path opacity="0.1" d="M525.675 722.74V736.246H517.502C508.318 732.113 499.315 727.604 490.491 722.72L525.675 722.74Z" fill="#C6005C"/>
<path opacity="0.1" d="M716.96 516.317H697.477V535.756H716.96V516.317Z" fill="#C6005C"/>
<path opacity="0.1" d="M295.124 425.747H275.641V445.186H295.124V425.747Z" fill="#C6005C"/>
<path opacity="0.1" d="M295.124 470.899H275.641V490.338H295.124V470.899Z" fill="#C6005C"/>
<path opacity="0.1" d="M295.124 516.051H275.641V535.489H295.124V516.051Z" fill="#C6005C"/>
<path opacity="0.1" d="M295.124 561.196H275.641V580.634H295.124V561.196Z" fill="#C6005C"/>
<path opacity="0.1" d="M295.124 606.348H275.641V625.786H295.124V606.348Z" fill="#C6005C"/>
<path opacity="0.1" d="M295.124 651.5H275.641V670.938H295.124V651.5Z" fill="#C6005C"/>
<path opacity="0.1" d="M791.335 516.317H771.852V535.756H791.335V516.317Z" fill="#C6005C"/>
<path opacity="0.1" d="M716.96 564.265H697.477V583.703H716.96V564.265Z" fill="#C6005C"/>
<path opacity="0.1" d="M791.335 564.265H771.852V583.703H791.335V564.265Z" fill="#C6005C"/>
<path opacity="0.1" d="M716.96 612.205H697.477V631.644H716.96V612.205Z" fill="#C6005C"/>
<path opacity="0.1" d="M791.335 612.205H771.852V631.644H791.335V612.205Z" fill="#C6005C"/>
<path opacity="0.1" d="M716.96 660.152H697.477V679.591H716.96V660.152Z" fill="#C6005C"/>
<path opacity="0.1" d="M791.335 660.152H771.852V679.591H791.335V660.152Z" fill="#C6005C"/>
<path opacity="0.1" d="M716.96 708.1H697.477V727.538H716.96V708.1Z" fill="#C6005C"/>
<path opacity="0.1" d="M791.335 708.1H771.852V727.538H791.335V708.1Z" fill="#C6005C"/>
<path opacity="0.1" d="M697.477 768.575V756.04H716.953V766.791L697.477 768.575Z" fill="#C6005C"/>
<path opacity="0.1" d="M178.331 479.935V491.056H245.006V479.935H178.331ZM184.975 490.358H179.536V480.619H185.017L184.975 490.358ZM191.614 490.358H186.133V480.619H191.614V490.358ZM198.238 490.358H192.758V480.619H198.238V490.358ZM204.876 490.358H199.402V480.619H204.883L204.876 490.358ZM211.507 490.358H206.027V480.619H211.507V490.358ZM218.145 490.358H212.665V480.619H218.145V490.358ZM224.783 490.358H219.303V480.619H224.783V490.358ZM231.415 490.358H225.934V480.619H231.415V490.358ZM238.046 490.358H232.565V480.619H238.046V490.358ZM244.677 490.358H239.197V480.619H244.677V490.358Z" fill="#C6005C"/>
<path opacity="0.1" d="M178.331 512.292V523.412H245.006V512.292H178.331ZM184.975 522.708H179.536V512.996H185.017L184.975 522.708ZM191.614 522.708H186.133V512.996H191.614V522.708ZM198.238 522.708H192.758V512.996H198.238V522.708ZM204.876 522.708H199.402V512.996H204.883L204.876 522.708ZM211.507 522.708H206.027V512.996H211.507V522.708ZM218.145 522.708H212.665V512.996H218.145V522.708ZM224.783 522.708H219.303V512.996H224.783V522.708ZM231.415 522.708H225.934V512.996H231.415V522.708ZM238.046 522.708H232.565V512.996H238.046V522.708ZM244.677 522.708H239.197V512.996H244.677V522.708Z" fill="#C6005C"/>
<path opacity="0.1" d="M178.331 544.662V555.803H245.006V544.662H178.331ZM184.975 555.079H179.536V545.359H185.017L184.975 555.079ZM191.614 555.079H186.133V545.359H191.614V555.079ZM198.238 555.079H192.758V545.359H198.238V555.079ZM204.876 555.079H199.402V545.359H204.883L204.876 555.079ZM211.507 555.079H206.027V545.359H211.507V555.079ZM218.145 555.079H212.665V545.359H218.145V555.079ZM224.783 555.079H219.303V545.359H224.783V555.079ZM231.415 555.079H225.934V545.359H231.415V555.079ZM238.046 555.079H232.565V545.359H238.046V555.079ZM244.677 555.079H239.197V545.359H244.677V555.079Z" fill="#C6005C"/>
<path opacity="0.1" d="M178.331 577.032V588.139H245.006V577.032H178.331ZM184.975 587.449H179.536V577.723H185.017L184.975 587.449ZM191.614 587.449H186.133V577.723H191.614V587.449ZM198.238 587.449H192.758V577.723H198.238V587.449ZM204.876 587.449H199.402V577.723H204.883L204.876 587.449ZM211.507 587.449H206.027V577.723H211.507V587.449ZM218.145 587.449H212.665V577.723H218.145V587.449ZM224.783 587.449H219.303V577.723H224.783V587.449ZM231.415 587.449H225.934V577.723H231.415V587.449ZM238.046 587.449H232.565V577.723H238.046V587.449ZM244.677 587.449H239.197V577.723H244.677V587.449Z" fill="#C6005C"/>
<path opacity="0.1" d="M178.619 609.396C178.886 610.442 179.187 611.488 179.502 612.52V610.093H184.983V619.813H182.051C182.14 620.038 182.229 620.284 182.318 620.496H245.006V609.396H178.619ZM191.634 619.813H186.154V610.093H191.634V619.813ZM198.259 619.813H192.778V610.093H198.259V619.813ZM204.897 619.813H199.403V610.093H204.883L204.897 619.813ZM211.528 619.813H206.048V610.093H211.528V619.813ZM218.166 619.813H212.686V610.093H218.166V619.813ZM224.804 619.813H219.324V610.093H224.804V619.813ZM231.435 619.813H225.955V610.093H231.435V619.813ZM238.067 619.813H232.586V610.093H238.067V619.813ZM244.698 619.813H239.218V610.093H244.698V619.813Z" fill="#C6005C"/>
<path opacity="0.1" d="M194.101 641.766C194.272 641.985 194.436 642.231 194.614 642.45H198.238V647.118C198.629 647.583 199.012 648.047 199.41 648.485V642.422H204.89V652.176H202.67C202.89 652.401 203.102 652.641 203.356 652.859H245.027V641.766H194.101ZM211.508 652.176H206.027V642.463H211.508V652.176ZM218.146 652.176H212.665V642.463H218.146V652.176ZM224.784 652.176H219.303V642.463H224.784V652.176ZM231.415 652.176H225.935V642.463H231.415V652.176ZM238.046 652.176H232.566V642.463H238.046V652.176ZM244.677 652.176H239.197V642.463H244.677V652.176Z" fill="#C6005C"/>
<path opacity="0.1" d="M230.675 674.13C231.298 674.485 231.935 674.813 232.579 675.169V674.827H238.06V677.903L239.224 678.443V674.827H244.704V680.739C244.81 680.791 244.92 680.833 245.033 680.862V674.13H230.675Z" fill="#C6005C"/>
<path opacity="0.1" d="M596.625 603.319C596.755 603.757 596.865 604.194 596.988 604.625C596.879 604.194 596.762 603.757 596.625 603.319ZM269.085 401.866V404.784H299.686V401.866H269.085ZM596.625 603.319C596.755 603.757 596.865 604.194 596.988 604.625C596.879 604.194 596.762 603.757 596.625 603.319ZM596.625 603.319C596.755 603.757 596.865 604.194 596.988 604.625C596.879 604.194 596.762 603.757 596.625 603.319Z" fill="#C6005C"/>
<path d="M482.216 535.503C482.216 535.503 479.517 535.127 479.517 531.204C479.517 527.281 477.585 519.954 477.585 519.954C477.585 519.92 475.913 507.193 473.605 505.17C471.296 503.147 468.33 491.267 468.33 491.267C468.33 491.267 467.823 484.822 466.789 483.435C465.754 482.047 464.357 478.65 462.295 473.804C460.233 468.958 451.635 465.602 451.635 465.602C451.635 465.602 436.092 456.607 431.687 453.675C431.287 453.434 430.912 453.152 430.57 452.834C429.803 451.83 426.46 451.809 426.46 451.809C426.111 449.608 425.775 447.079 425.665 444.79C425.665 444.544 425.665 444.298 425.631 444.051C430.543 441.155 434.242 436.587 436.051 431.188C436.133 430.928 436.201 430.655 436.277 430.395C436.571 430.298 436.842 430.142 437.072 429.934C437.302 429.727 437.486 429.474 437.613 429.192C438.01 428.311 438.017 427.278 438.51 426.458C439.085 425.488 440.182 424.968 441.045 424.237C443.223 422.391 443.785 419.282 443.682 416.452C443.614 414.162 443.244 411.852 443.388 409.576L443.429 409.002C443.47 408.66 443.518 408.318 443.579 407.99C443.915 406.295 444.648 404.696 445.059 403.014C445.47 401.333 445.511 399.44 444.552 397.991C443.148 395.865 440.223 395.441 437.654 395.222C434.742 394.976 432.139 395.298 430.276 392.885C429.404 391.624 428.423 390.441 427.344 389.351C426.96 388.996 423.234 386.727 423.234 386.576C419.596 384.895 415.474 384.58 411.622 385.688C409.69 386.248 407.868 387.164 405.909 387.622C401.682 388.62 396.818 387.54 393.229 389.953C391.228 391.32 390.03 393.493 388.906 395.612C387.993 397.357 387.066 399.1 386.125 400.841C384.611 403.705 383.069 406.616 382.432 409.788C382.298 410.478 382.216 411.177 382.186 411.879V411.913C382.186 412.166 382.186 412.419 382.186 412.672V412.993C382.186 413.233 382.186 413.465 382.227 413.677C382.268 413.889 382.261 413.957 382.282 414.101C382.302 414.244 382.336 414.565 382.378 414.784C382.419 415.003 382.501 415.386 382.583 415.686C382.617 415.816 382.665 415.939 382.706 416.062C382.775 416.295 382.857 416.52 382.946 416.746C382.994 416.862 383.042 416.985 383.097 417.101C383.2 417.34 383.323 417.573 383.446 417.785C383.501 417.88 383.542 417.969 383.597 418.058C383.788 418.376 383.999 418.682 384.227 418.974C385.693 420.799 387.851 421.961 389.447 423.67C389.447 423.738 389.447 423.806 389.447 423.868C389.447 424.059 389.447 424.244 389.447 424.435C389.532 428.246 390.549 431.978 392.409 435.308C394.269 438.637 396.916 441.463 400.12 443.539C400.12 443.799 400.154 444.065 400.168 444.325C400.302 446.354 400.277 448.39 400.093 450.415C399.814 450.087 399.465 449.826 399.071 449.651C398.677 449.476 398.249 449.391 397.818 449.403C397.524 449.389 397.229 449.414 396.942 449.478L396.88 449.431V449.492C395.373 449.861 393.516 451.426 391.742 455.876C391.742 455.876 386.344 461.945 382.234 461.692C378.123 461.44 367.718 468.008 367.718 468.008C367.718 468.008 357.565 474.583 355.387 481.281C354.169 485.08 352.709 488.796 351.016 492.409L338.466 518.211L336.151 538.682C336.151 538.682 337.432 547.786 337.178 549.173C336.925 550.561 342.446 563.076 342.446 563.076C342.446 563.076 360.689 595.056 368.142 596.697L368.677 596.321C368.996 596.487 369.334 596.613 369.684 596.697L371.218 595.617C371.31 596.82 371.271 598.03 371.102 599.226C370.074 602.383 371.485 622.991 373.28 627.03C375.075 631.07 374.438 684.034 374.438 684.034L374.184 688.709C374.184 688.709 374.184 688.859 374.246 689.119L374.184 690.226L374.369 690.322C374.561 691.805 374.499 693.31 374.184 694.772C373.541 696.822 373.28 702.618 373.28 702.618C373.28 702.618 368.149 735.344 370.581 741.919C373.013 748.494 375.082 755.699 375.082 755.699C375.082 755.699 377.651 763.9 375.205 765.302C372.76 766.703 365.806 769.054 367.238 772.472C368.54 775.629 373.479 784.091 374.212 785.328L374.15 785.977L373.143 796.865C373.306 798.303 373.697 799.706 374.301 801.021C375.404 803.393 377.548 805.853 381.624 805.587C382.309 805.539 383.104 805.457 383.871 805.355C391.331 804.357 400.518 801.035 400.518 801.035C400.041 800.733 399.603 800.372 399.216 799.962C398.849 799.607 398.559 799.182 398.362 798.712C398.165 798.242 398.067 797.737 398.072 797.228C398.182 795.246 394.462 785.8 393.537 783.476C393.393 783.141 393.318 782.95 393.318 782.95C393.318 782.95 401.799 774.105 400.387 766.265C400.387 766.265 391.002 760.797 394.092 757.797C397.181 754.796 402.703 746.177 402.703 746.177C402.703 746.177 402.956 713.951 402.703 709.139C402.438 705.799 402.597 702.439 403.175 699.139C403.278 698.64 403.402 698.155 403.532 697.676C407.804 698.313 412.118 698.64 416.438 698.654C418.014 698.654 419.617 698.654 421.233 698.558C421.233 699.014 421.254 699.506 421.295 700.035C421.651 708.018 422.316 722.016 422.857 727.217C423.624 734.674 427.864 754.769 427.864 754.769C427.864 754.769 419.774 759.95 429.276 772.718C429.276 772.718 429.276 777.345 428.645 778.015C427.973 780.204 427.43 782.432 427.022 784.686C426.625 787.091 426.46 789.525 427.104 790.789C428.645 793.81 437.893 793.564 437.893 793.564L438.12 793.523C439.865 793.343 441.63 793.511 443.31 794.016C444.991 794.522 446.554 795.356 447.909 796.469C451.423 799.285 464.761 798.048 471.981 797.153C474.81 796.797 476.701 796.469 476.701 796.469C476.793 796.15 476.825 795.816 476.797 795.485C476.722 793.715 475.331 789.832 465.905 786.367C465.905 786.367 457.04 780.421 457.164 775.24H456.979H455.951C456.698 775.199 457.177 775.24 457.177 775.24C457.177 775.24 453.704 762.595 455.122 761.57C456.54 760.544 452.293 746.533 452.293 746.533C452.293 746.533 449.861 723.021 449.731 721.373C449.736 719.96 449.951 718.555 450.368 717.204L449.731 704.313C449.731 704.313 449.608 700.028 449.731 698.633C449.71 697.423 449.612 696.215 449.436 695.018C449.375 694.539 449.313 694.04 449.245 693.548C452.567 692.707 454.725 691.928 454.725 691.928L454.341 647.057C457.164 641.589 457.684 629.593 457.671 621.084C457.671 615.616 457.424 611.57 457.424 611.57L461.281 605.288C461.281 605.288 462.171 597.77 460.76 596.123C460.137 595.378 460.418 594.605 460.931 593.97C461.198 593.758 461.48 593.567 461.774 593.395C461.774 593.395 461.733 593.334 461.685 593.245C461.954 593.021 462.241 592.817 462.541 592.637C462.541 592.637 461.171 590.518 462.397 589.622C463.548 590.402 464.576 590.989 465.357 591.468C465.302 591.967 465.247 592.254 465.247 592.254L465.576 591.57C466.33 591.994 466.789 592.254 466.789 592.254C466.789 592.254 472.831 580.245 472.701 578.475C472.57 576.704 476.811 569.247 476.811 569.247C476.811 569.247 477.325 565.331 479.64 563.691C481.955 562.05 481.435 550.164 481.435 550.164C481.435 550.164 482.079 543.972 483.62 541.443C485.161 538.914 482.216 535.503 482.216 535.503ZM366.608 530.234L366.724 533.097C366.039 531.997 365.546 531.204 365.546 531.204L366.608 530.234Z" fill="url(#paint0_linear_40_2)"/>
<path d="M467.117 587.066L465.638 593.354C465.638 593.354 453.786 587.319 451.649 579.65C449.512 571.982 455.225 569.07 455.225 569.07L466.268 573.738L467.117 587.066Z" fill="white"/>
<path opacity="0.1" d="M467.117 587.066L465.638 593.354C465.638 593.354 453.786 587.319 451.649 579.65C449.512 571.982 455.225 569.07 455.225 569.07L466.268 573.738L467.117 587.066Z" fill="black"/>
<path d="M400.607 801.076C400.607 801.076 389.646 805.095 382.11 805.6C378.11 805.867 376.007 803.42 374.924 801.062C374.333 799.751 373.952 798.356 373.794 796.927L374.774 786.093L375.294 780.325L391.304 776.176L393.571 783.093L393.783 783.619C394.695 785.929 398.346 795.327 398.236 797.289C398.232 797.791 398.329 798.289 398.522 798.753C398.715 799.217 399 799.637 399.36 799.989C399.727 800.402 400.146 800.768 400.607 801.076Z" fill="white"/>
<path d="M475.475 795.566C475.502 795.895 475.47 796.227 475.379 796.544C475.379 796.544 451.937 800.447 447.142 796.544C445.79 795.404 444.214 794.558 442.515 794.061C440.816 793.565 439.032 793.428 437.277 793.66C437.277 793.66 428.207 793.906 426.693 790.926C426.063 789.675 426.227 787.248 426.618 784.856C427.016 782.615 427.547 780.398 428.207 778.219L428.57 777.932L430.728 776.203L455.992 775.458H456.184C456.061 780.612 464.761 786.524 464.761 786.524C474.002 789.941 475.365 793.803 475.475 795.566Z" fill="white"/>
<path opacity="0.1" d="M475.475 795.567C475.499 795.896 475.464 796.227 475.372 796.544C475.372 796.544 451.937 800.447 447.141 796.544C445.79 795.405 444.215 794.56 442.518 794.063C440.82 793.567 439.038 793.429 437.284 793.66C437.284 793.66 428.207 793.906 426.7 790.926C426.07 789.668 426.227 787.249 426.618 784.856C430.111 785.205 435.626 786.073 437.791 788.144C441.065 791.295 446.614 794.439 450.019 794.685C452.683 794.856 468.624 795.362 475.475 795.567Z" fill="black"/>
<path opacity="0.1" d="M400.607 801.076C400.607 801.076 389.646 805.094 382.11 805.6C378.11 805.867 376.007 803.42 374.931 801.055C377.719 801.991 381.59 802.976 383.624 802.073C386.036 801.007 394.585 800.317 399.38 800.023C399.745 800.422 400.157 800.775 400.607 801.076Z" fill="black"/>
<path d="M416.87 477.201C407.827 473.694 396.195 462.109 399.1 456.696C399.745 455.33 400.128 453.855 400.23 452.349C400.417 450.304 400.444 448.247 400.312 446.197C400.108 442.841 399.704 439.499 399.1 436.191C399.1 436.191 427.33 436.827 425.686 440.975C425.207 442.192 425.131 444.304 425.261 446.669C425.392 449.034 425.734 451.706 426.09 453.969C426.583 457.072 427.077 459.437 427.077 459.437C427.077 459.437 425.35 461.849 424.337 461.979C423.323 462.109 429.844 482.197 416.87 477.201Z" fill="#CF6F80"/>
<path opacity="0.1" d="M393.763 783.619L393.551 783.851C385.111 773.667 374.904 786.36 374.904 786.36L374.753 786.093L375.274 780.325L391.283 776.176L393.551 783.093L393.763 783.619Z" fill="black"/>
<path opacity="0.1" d="M456.191 776.176C456.191 776.176 450.026 776.046 446.737 778.944C443.449 781.842 427.556 779.573 428.241 778.944C428.444 778.632 428.567 778.275 428.597 777.905L430.755 776.176L456.02 775.431C456.116 775.889 456.191 776.176 456.191 776.176Z" fill="black"/>
<path d="M404.265 696.2C403.805 697.332 403.457 698.507 403.223 699.706C402.652 702.991 402.493 706.334 402.751 709.658C403.004 714.442 402.751 746.505 402.751 746.505C402.751 746.505 397.332 755.056 394.311 758.07C391.29 761.084 400.476 766.497 400.476 766.497C401.846 774.289 393.544 783.093 393.544 783.093C385.104 772.909 374.897 785.608 374.897 785.608C374.897 785.608 369.348 776.039 367.964 772.621C366.58 769.204 373.383 766.839 375.774 765.452C378.164 764.064 375.657 755.883 375.657 755.883C375.657 755.883 373.636 748.713 371.239 742.172C368.841 735.631 373.883 703.069 373.883 703.069C373.883 703.069 374.143 697.287 374.767 695.27C375.081 693.815 375.144 692.317 374.952 690.841C374.911 690.342 374.863 689.925 374.828 689.645C374.794 689.365 374.767 689.235 374.767 689.235L374.863 689.071L378.288 682.701C378.288 682.701 405.909 692.188 404.265 696.2Z" fill="#C6005C"/>
<path d="M456.191 775.424C456.191 775.424 450.026 775.294 446.737 778.158C443.449 781.022 427.556 778.787 428.241 778.158C428.926 777.529 428.872 772.874 428.872 772.874C419.548 760.175 427.501 755.021 427.501 755.021C427.501 755.021 423.336 735.029 422.583 727.613C422.055 722.432 421.405 708.509 421.055 700.56C420.904 697.143 420.815 694.792 420.815 694.792L428.433 693.261L429.413 693.062L447.786 689.385C447.786 689.385 448.293 692.803 448.635 695.598C448.806 696.792 448.902 697.995 448.923 699.2C448.799 700.567 448.923 704.846 448.923 704.846L449.546 717.675C449.139 719.021 448.929 720.418 448.923 721.824C449.046 723.458 451.437 746.847 451.437 746.847C451.437 746.847 455.595 760.804 454.177 761.809C452.759 762.813 456.191 775.424 456.191 775.424Z" fill="#C6005C"/>
<path opacity="0.1" d="M425.686 440.975C425.207 442.192 425.131 444.304 425.261 446.669C421.48 448.941 417.133 450.102 412.72 450.02C408.306 449.938 404.006 448.615 400.312 446.204C400.109 442.845 399.704 439.502 399.1 436.191C399.1 436.191 427.33 436.813 425.686 440.975Z" fill="black"/>
<path d="M436.599 425.87C436.604 428.333 436.216 430.781 435.448 433.122C433.732 438.367 430.212 442.838 425.512 445.744C420.811 448.65 415.232 449.805 409.761 449.004C404.29 448.204 399.278 445.499 395.612 441.368C391.947 437.237 389.862 431.946 389.728 426.431C389.728 426.239 389.728 426.061 389.728 425.87C389.675 422.765 390.242 419.681 391.396 416.797C392.55 413.914 394.268 411.288 396.45 409.074C398.631 406.859 401.233 405.1 404.103 403.9C406.974 402.699 410.055 402.081 413.167 402.081C416.279 402.081 419.36 402.699 422.23 403.9C425.1 405.1 427.702 406.859 429.884 409.074C432.066 411.288 433.784 413.914 434.938 416.797C436.092 419.681 436.659 422.765 436.606 425.87H436.599Z" fill="#CF6F80"/>
<path opacity="0.1" d="M416.87 477.201C407.827 473.695 396.195 462.109 399.1 456.696C399.745 455.33 400.128 453.856 400.23 452.349L412.609 462.499L420.267 468.767L426.09 453.976C426.583 457.079 427.077 459.444 427.077 459.444C427.077 459.444 425.35 461.857 424.337 461.986C423.323 462.116 429.844 482.197 416.87 477.201Z" fill="black"/>
<path d="M448.882 522.059L438.544 695.325L425.063 696.207L390.153 595.74L395.88 476.463L397.085 451.262L412.609 463.982L420.274 470.25L426.268 455.028L437.414 464.72L448.882 522.059Z" fill="#C6005C"/>
<path opacity="0.1" d="M404.265 696.2C403.806 697.332 403.457 698.507 403.224 699.706C393.414 698.195 383.886 695.225 374.959 690.896L374.774 690.8L374.836 689.7L374.87 689.126L378.295 682.755C378.295 682.755 405.909 692.188 404.265 696.2Z" fill="black"/>
<path opacity="0.1" d="M428.591 699.733C426.083 700.159 423.554 700.446 421.014 700.595C420.863 697.177 420.774 694.826 420.774 694.826L428.392 693.295L428.591 699.733Z" fill="black"/>
<path opacity="0.1" d="M448.594 695.632C443.723 696.897 436.201 698.319 429.467 697.43L429.372 693.097L447.744 689.419C447.744 689.419 448.251 692.803 448.594 695.632Z" fill="black"/>
<path opacity="0.1" d="M429.344 698.223C401.257 703.007 375.534 689.29 375.534 689.29L375.781 684.642C375.781 684.642 376.418 631.951 374.65 627.912C372.883 623.872 371.506 603.388 372.506 600.244C373.506 597.1 368.855 549.952 368.855 549.952L368.101 530.814L340.521 519.666L352.852 494.022C354.518 490.426 355.95 486.728 357.141 482.949C359.285 476.292 369.238 469.751 369.238 469.751C369.238 469.751 379.446 463.216 383.481 463.462C387.515 463.709 392.804 457.68 392.804 457.68C396.709 447.749 400.244 452.246 400.244 452.246C400.244 452.718 400.244 452.246 400.052 453.716C398.682 464.618 422.206 499.066 422.542 499.674L424.782 554.121L427.049 623.025L429.344 698.223Z" fill="black"/>
<path d="M428.591 698.223C400.504 703.007 374.774 689.29 374.774 689.29L375.027 684.642C375.027 684.642 375.664 631.951 373.89 627.912C372.116 623.872 370.746 603.388 371.753 600.244C372.76 597.1 368.102 549.952 368.102 549.952L367.341 530.814L339.748 519.625L352.078 493.981C353.74 490.384 355.173 486.685 356.367 482.908C358.504 476.251 368.465 469.71 368.465 469.71C368.465 469.71 378.672 463.175 382.7 463.421C386.728 463.668 392.023 457.639 392.023 457.639C395.935 447.708 400.244 452.205 400.244 452.205C400.244 452.677 399.833 452.889 400.052 453.675C403.066 464.248 421.453 499.025 421.788 499.633L424.056 554.08L426.323 622.984L428.591 698.223Z" fill="white"/>
<path opacity="0.1" d="M421.021 501.185C418 499.927 401.997 481.698 401.997 481.698V477.549C401.415 476.182 397.956 477.016 395.147 477.973L396.353 452.772L397.723 453.907C400.723 464.474 420.672 500.576 421.021 501.185Z" fill="black"/>
<path d="M421.781 499.674C418.753 498.417 402.751 480.188 402.751 480.188V476.039C402.169 474.672 398.709 475.506 395.9 476.463L397.113 451.262L398.483 452.397C401.49 462.964 421.446 499.073 421.781 499.674Z" fill="white"/>
<path opacity="0.1" d="M375.534 590.586C375.911 590.586 395.065 588.577 395.065 588.577C395.065 588.577 406.662 611.33 405.902 616.867C405.142 622.403 403.765 627.304 399.1 626.436C394.434 625.567 373.993 627.119 373.993 627.119L375.534 590.586Z" fill="black"/>
<path d="M374.774 589.075C375.151 589.075 394.304 587.066 394.304 587.066C394.304 587.066 405.895 609.826 405.142 615.356C404.388 620.885 402.998 625.793 398.339 624.925C393.681 624.057 373.232 625.608 373.232 625.608L374.774 589.075Z" fill="white"/>
<path d="M389.208 578.393C389.208 578.393 406.786 587.818 407.163 590.696C407.539 593.573 398.216 589.438 396.202 588.939C394.876 588.62 393.527 588.41 392.167 588.31L378.733 588.672L389.208 578.393Z" fill="#CF6F80"/>
<path opacity="0.1" d="M416.116 502.36C417.138 502.36 417.966 501.534 417.966 500.515C417.966 499.496 417.138 498.669 416.116 498.669C415.095 498.669 414.267 499.496 414.267 500.515C414.267 501.534 415.095 502.36 416.116 502.36Z" fill="black"/>
<path d="M416.116 501.608C417.138 501.608 417.966 500.782 417.966 499.763C417.966 498.744 417.138 497.917 416.116 497.917C415.095 497.917 414.267 498.744 414.267 499.763C414.267 500.782 415.095 501.608 416.116 501.608Z" fill="#3F3D56"/>
<path opacity="0.1" d="M419.521 582.248C420.542 582.248 421.37 581.421 421.37 580.402C421.37 579.383 420.542 578.557 419.521 578.557C418.499 578.557 417.671 579.383 417.671 580.402C417.671 581.421 418.499 582.248 419.521 582.248Z" fill="black"/>
<path d="M419.521 581.489C420.542 581.489 421.37 580.663 421.37 579.643C421.37 578.624 420.542 577.798 419.521 577.798C418.499 577.798 417.671 578.624 417.671 579.643C417.671 580.663 418.499 581.489 419.521 581.489Z" fill="#3F3D56"/>
<path opacity="0.1" d="M417.959 542.304C418.98 542.304 419.809 541.477 419.809 540.458C419.809 539.439 418.98 538.613 417.959 538.613C416.937 538.613 416.109 539.439 416.109 540.458C416.109 541.477 416.937 542.304 417.959 542.304Z" fill="black"/>
<path d="M417.959 541.552C418.98 541.552 419.809 540.726 419.809 539.707C419.809 538.688 418.98 537.861 417.959 537.861C416.937 537.861 416.109 538.688 416.109 539.707C416.109 540.726 416.937 541.552 417.959 541.552Z" fill="#3F3D56"/>
<path d="M460.596 587.927C460.596 587.927 461.856 589.814 460.596 590.695C459.335 591.577 460.719 593.71 460.719 593.71C460.719 593.71 457.575 595.548 458.959 597.202C460.343 598.856 459.466 606.327 459.466 606.327L455.684 612.574C455.684 612.574 455.91 616.6 455.924 622.041C455.924 630.53 455.424 642.463 452.656 647.904L453.04 692.543C453.04 692.543 439.798 697.369 428.714 695.899L427.07 624.269C427.07 624.269 429.468 583.649 430.351 575.857C430.868 571.811 431.079 567.733 430.982 563.656C430.982 563.656 430.605 551.463 429.337 545.803C429.337 545.803 427.967 521.286 427.83 514.499C427.769 511.253 427.94 501.779 428.132 492.771C428.344 482.922 428.584 473.633 428.584 473.633L426.083 453.894C426.083 453.894 428.584 453.641 429.337 454.645C429.675 454.96 430.042 455.242 430.434 455.486C434.749 458.398 449.998 467.352 449.998 467.352C449.998 467.352 458.438 470.701 460.459 475.499C462.48 480.297 463.884 483.701 464.864 485.068C465.843 486.435 466.378 492.86 466.378 492.86C466.378 492.86 469.282 504.684 471.55 506.687C473.817 508.69 475.475 521.43 475.475 521.43L455.438 537.15C455.438 537.15 453.677 563.301 453.3 564.312C452.923 565.324 460.596 587.927 460.596 587.927Z" fill="white"/>
<path d="M461.356 587.927C461.356 587.927 462.61 589.814 461.356 590.695C460.103 591.577 461.473 593.71 461.473 593.71C461.473 593.71 458.349 595.569 459.719 597.223C461.089 598.877 460.226 606.347 460.226 606.347L456.445 612.595C456.445 612.595 456.671 616.62 456.691 622.061C456.691 630.55 456.191 642.484 453.424 647.925L453.8 692.564C453.8 692.564 440.538 697.389 429.468 695.92L427.83 624.289C427.83 624.289 430.228 583.669 431.112 575.877C431.63 571.832 431.838 567.753 431.735 563.677C431.735 563.677 431.358 551.483 430.098 545.824C430.098 545.824 428.728 521.307 428.584 514.52C428.522 511.273 428.7 501.8 428.885 492.791C429.098 482.942 429.338 473.653 429.338 473.653L426.036 453.647C426.036 453.647 429.338 453.647 430.098 454.666C430.432 454.984 430.8 455.266 431.194 455.507C435.51 458.418 450.766 467.372 450.766 467.372C450.766 467.372 459.199 470.721 461.219 475.519C463.24 480.317 464.645 483.721 465.631 485.088C466.618 486.455 467.138 492.88 467.138 492.88C467.138 492.88 470.043 504.705 472.31 506.707C474.578 508.71 476.215 521.423 476.215 521.423L456.178 537.143C456.178 537.143 454.417 563.294 454.033 564.306C453.65 565.317 461.356 587.927 461.356 587.927Z" fill="white"/>
<path opacity="0.1" d="M437.359 479.456L439.168 484.719L429.646 494.288C429.858 484.446 430.098 475.15 430.098 475.15L426.796 455.145C426.796 455.145 430.098 455.145 430.858 456.163C431.192 456.48 431.559 456.76 431.954 456.997L440.051 480.304L437.359 479.456Z" fill="black"/>
<path d="M436.599 477.946L438.414 483.209L428.892 492.778C429.105 482.928 429.344 473.64 429.344 473.64L426.036 453.634C426.036 453.634 429.344 453.634 430.098 454.652C430.434 454.969 430.801 455.25 431.194 455.493L439.298 478.793L436.599 477.946Z" fill="white"/>
<path opacity="0.1" d="M436.599 425.87C436.604 428.333 436.216 430.781 435.448 433.122C435.318 433.142 435.186 433.136 435.059 433.105C434.932 433.073 434.813 433.016 434.708 432.937C434.53 426.786 431.495 421.01 427.762 416.096C426.713 414.612 425.443 413.298 423.994 412.2C422.529 411.103 420.707 410.588 418.883 410.758C416.828 411.038 415.013 412.433 412.937 412.61C410.197 412.836 407.745 410.943 405.025 410.847C403.919 410.857 402.829 411.103 401.826 411.567C400.823 412.032 399.931 412.704 399.209 413.54C397.78 415.226 396.719 417.191 396.092 419.309C395.015 422.52 394.428 425.875 394.352 429.26C394.318 431.174 394.133 433.573 392.352 434.27C392.486 432.863 392.326 431.443 391.881 430.1C391.436 428.758 390.717 427.522 389.769 426.472L389.728 426.431C389.728 426.239 389.728 426.061 389.728 425.87C389.675 422.765 390.242 419.681 391.396 416.797C392.55 413.914 394.268 411.288 396.45 409.074C398.631 406.859 401.233 405.1 404.103 403.9C406.974 402.699 410.055 402.081 413.167 402.081C416.279 402.081 419.36 402.699 422.23 403.9C425.1 405.1 427.702 406.859 429.884 409.074C432.066 411.288 433.784 413.914 434.938 416.797C436.092 419.681 436.659 422.765 436.606 425.87H436.599Z" fill="black"/>
<path d="M422.87 388.736C419.311 387.065 415.262 386.749 411.485 387.847C409.587 388.408 407.799 389.317 405.875 389.775C401.764 390.766 396.969 389.693 393.441 392.092C391.482 393.459 390.304 395.619 389.207 397.717L386.467 402.925C384.974 405.775 383.467 408.673 382.843 411.811C382.22 414.948 382.597 418.461 384.59 420.983C386.043 422.822 388.187 423.977 389.762 425.706C390.706 426.758 391.422 427.993 391.865 429.334C392.309 430.675 392.47 432.092 392.338 433.498C394.126 432.814 394.297 430.409 394.338 428.495C394.415 425.109 395.001 421.754 396.078 418.543C396.704 416.425 397.765 414.46 399.195 412.774C399.918 411.939 400.81 411.267 401.813 410.803C402.816 410.339 403.906 410.093 405.011 410.081C407.752 410.177 410.211 412.063 412.924 411.838C414.979 411.667 416.801 410.266 418.87 409.992C420.694 409.82 422.517 410.335 423.98 411.435C425.429 412.531 426.697 413.845 427.741 415.331C431.481 420.245 434.516 426.007 434.694 432.172C435.468 432.739 436.585 432.001 436.969 431.126C437.352 430.251 437.366 429.226 437.852 428.392C438.414 427.428 439.49 426.916 440.332 426.191C442.47 424.353 443.004 421.257 442.922 418.447C442.839 415.638 442.291 412.788 442.826 410.027C443.148 408.332 443.874 406.746 444.271 405.071C444.669 403.397 444.716 401.517 443.778 400.075C442.408 397.956 439.524 397.539 437.01 397.341C434.153 397.095 431.598 397.409 429.776 395.01C428.92 393.758 427.958 392.583 426.898 391.497C426.535 391.142 422.87 388.886 422.87 388.736Z" fill="#512E4E"/>
<path opacity="0.1" d="M348.413 532.872L341.255 519.667L338.987 540.042C338.987 540.042 340.248 549.091 339.994 550.479C339.741 551.866 345.16 564.306 345.16 564.306C345.16 564.306 363.06 596.116 370.369 597.756L395.065 580.149L388.516 571.851C388.516 571.851 386.248 570.97 385.68 571.851C385.68 571.851 373.52 550.977 372.26 549.467C370.999 547.956 371.246 544.942 371.246 544.942C371.246 544.942 369.355 542.933 369.986 541.046C370.616 539.16 366.334 532.619 366.334 532.619L370.239 528.976L348.413 532.872Z" fill="black"/>
<path d="M341.631 518.163L339.741 519.666L337.473 540.041C337.473 540.041 338.734 549.091 338.48 550.478C338.227 551.866 343.652 564.305 343.652 564.305C343.652 564.305 361.546 596.115 368.855 597.756L393.558 580.149L387.002 571.851C387.002 571.851 384.734 570.97 384.166 571.851C384.166 571.851 372.006 550.977 370.746 549.467C369.485 547.956 369.739 544.942 369.739 544.942C369.739 544.942 367.848 542.933 368.478 541.046C369.108 539.16 364.82 532.619 364.82 532.619L368.725 528.976L341.631 518.163Z" fill="white"/>
<path opacity="0.1" d="M458.959 597.982C460.329 599.643 459.466 607.1 459.466 607.1L455.684 613.347C455.684 613.347 455.91 617.379 455.924 622.813L449.567 624.795C448.992 624.974 448.383 625.014 447.79 624.91C447.197 624.806 446.638 624.563 446.159 624.2C445.679 623.836 445.294 623.364 445.035 622.822C444.776 622.28 444.65 621.684 444.669 621.084L445.765 585.809L460.596 591.468C459.336 592.343 460.719 594.489 460.719 594.489C460.719 594.489 457.575 596.321 458.959 597.982Z" fill="black"/>
<path d="M459.719 597.223C461.089 598.884 460.226 606.348 460.226 606.348L456.444 612.595C456.444 612.595 456.67 616.621 456.691 622.061L450.217 624.077C449.655 624.252 449.058 624.29 448.478 624.188C447.898 624.086 447.35 623.847 446.881 623.491C446.412 623.136 446.035 622.673 445.781 622.143C445.527 621.612 445.404 621.029 445.422 620.441L446.525 585.057L461.363 590.716C460.096 591.591 461.48 593.73 461.48 593.73C461.48 593.73 458.349 595.569 459.719 597.223Z" fill="white"/>
<path d="M464.631 580.409C464.631 580.409 463.624 586.827 461.103 587.203C458.582 587.579 457.451 597.585 454.937 597.23C452.423 596.874 454.088 587.927 454.177 586.191C454.266 584.455 451.437 577.265 453.553 575.631C455.67 573.998 462.37 575.631 462.37 575.631L464.631 580.409Z" fill="#CF6F80"/>
<path opacity="0.1" d="M469.995 530.985L474.749 521.416C474.749 521.416 476.64 528.709 476.64 532.605C476.64 536.501 479.284 536.884 479.284 536.884C479.284 536.884 482.182 540.301 480.654 542.789C479.127 545.277 478.51 551.469 478.51 551.469C478.51 551.469 479.01 563.287 476.743 564.921C474.475 566.554 474.002 570.457 474.002 570.457C474.002 570.457 469.837 577.873 469.968 579.636C470.098 581.4 464.172 593.34 464.172 593.34C464.172 593.34 467.07 578.502 450.183 572.09C450.183 572.09 450.053 567.053 451.314 565.672C452.574 564.292 454.54 563.663 453.307 556.684C452.074 549.706 452.951 541.367 452.951 539.693C452.951 538.018 456.733 527.574 456.733 527.574L469.995 530.985Z" fill="black"/>
<path d="M472.05 520.049L476.201 521.416C476.201 521.416 478.099 528.709 478.099 532.605C478.099 536.501 480.743 536.884 480.743 536.884C480.743 536.884 483.641 540.301 482.113 542.789C480.586 545.277 479.976 551.47 479.976 551.47C479.976 551.47 480.476 563.287 478.208 564.921C475.941 566.554 475.434 570.457 475.434 570.457C475.434 570.457 471.276 577.873 471.406 579.637C471.536 581.4 465.604 593.341 465.604 593.341C465.604 593.341 468.508 578.502 451.615 572.091C451.615 572.091 451.492 567.053 452.752 565.673C454.013 564.292 455.979 563.663 454.746 556.685C453.513 549.706 454.39 541.368 454.39 539.693C454.39 538.018 458.171 527.575 458.171 527.575L472.05 520.049Z" fill="white"/>
<path opacity="0.1" d="M380.357 768.07C380.357 768.07 386.974 763.921 391.318 766.935C395.661 769.949 380.357 768.07 380.357 768.07Z" fill="black"/>
<path opacity="0.1" d="M431.776 755.241C431.776 755.241 437.633 754.489 442.552 759.772C447.471 765.056 431.776 755.241 431.776 755.241Z" fill="black"/>
<g opacity="0.1">
<path d="M440.346 424.695C439.504 425.419 438.421 425.939 437.859 426.902C437.38 427.729 437.366 428.748 436.983 429.636C436.599 430.525 435.482 431.249 434.708 430.689C434.53 424.538 431.489 418.762 427.755 413.841C426.711 412.356 425.442 411.041 423.994 409.945C422.528 408.845 420.703 408.331 418.877 408.503C416.822 408.783 415.013 410.177 412.938 410.348C410.197 410.581 407.738 408.687 405.018 408.592C403.913 408.603 402.823 408.849 401.821 409.315C400.819 409.78 399.929 410.454 399.209 411.291C397.779 412.974 396.718 414.937 396.092 417.053C395.016 420.265 394.429 423.619 394.352 427.005C394.311 428.912 394.133 431.29 392.366 432.001C392.407 432.506 392.407 433.014 392.366 433.519C394.147 432.835 394.325 430.429 394.366 428.515C394.442 425.13 395.029 421.775 396.106 418.564C396.731 416.445 397.793 414.481 399.223 412.795C399.944 411.96 400.835 411.288 401.837 410.824C402.838 410.36 403.928 410.114 405.032 410.102C407.772 410.198 410.239 412.084 412.951 411.859C415.006 411.688 416.829 410.287 418.891 410.013C420.717 409.841 422.542 410.356 424.008 411.455C425.456 412.552 426.725 413.866 427.769 415.351C431.502 420.266 434.544 426.028 434.722 432.193C435.496 432.76 436.613 432.022 436.996 431.147C437.38 430.272 437.394 429.247 437.873 428.413C438.435 427.449 439.517 426.937 440.36 426.212C442.497 424.374 443.032 421.277 442.949 418.468C442.949 418.379 442.949 418.29 442.949 418.208C442.819 420.642 442.168 423.123 440.346 424.695Z" fill="black"/>
<path d="M389.776 424.209C388.201 422.48 386.05 421.325 384.604 419.493C383.387 417.872 382.692 415.92 382.611 413.896C382.395 416.425 383.103 418.947 384.604 420.997C386.05 422.836 388.201 423.991 389.776 425.72C391.289 427.411 392.197 429.556 392.359 431.817C392.464 430.441 392.289 429.057 391.845 427.75C391.402 426.443 390.698 425.239 389.776 424.209Z" fill="black"/>
<path d="M444.285 403.575C443.881 405.249 443.161 406.842 442.833 408.53C442.638 409.658 442.567 410.804 442.62 411.947C442.643 411.296 442.714 410.647 442.833 410.006C443.161 408.311 443.881 406.725 444.285 405.051C444.521 404.127 444.597 403.17 444.511 402.221C444.468 402.677 444.393 403.129 444.285 403.575Z" fill="black"/>
</g>
<path opacity="0.1" d="M256.926 795.861C293.791 795.861 323.676 791.072 323.676 785.164C323.676 779.256 293.791 774.467 256.926 774.467C220.061 774.467 190.175 779.256 190.175 785.164C190.175 791.072 220.061 795.861 256.926 795.861Z" fill="#C6005C"/>
<path d="M259.077 580.251H254.782V676.741H259.077V580.251Z" fill="#535461"/>
<path d="M286.068 676.447L285.801 680.794L285.417 686.945L285.259 689.502L284.883 695.653L284.718 698.209L284.335 704.361L280.005 774.125C279.817 777.127 278.489 779.944 276.293 782.004C274.096 784.063 271.196 785.211 268.181 785.212H245.671C242.657 785.21 239.757 784.063 237.562 782.003C235.366 779.944 234.04 777.126 233.854 774.125L229.545 704.313L229.161 698.162L229.004 695.605L228.62 689.454L228.462 686.897L228.079 680.746L227.805 676.399C227.757 675.562 227.881 674.725 228.17 673.938C228.458 673.151 228.905 672.431 229.482 671.822C230.06 671.213 230.756 670.729 231.527 670.398C232.299 670.067 233.13 669.898 233.97 669.899H280.012C280.849 669.906 281.675 670.084 282.44 670.423C283.205 670.761 283.893 671.252 284.46 671.865C285.028 672.479 285.463 673.202 285.739 673.99C286.016 674.778 286.128 675.614 286.068 676.447Z" fill="#3F3D56"/>
<path d="M285.8 680.794L285.417 686.925H228.435L228.051 680.794H285.8Z" fill="#9D9CB5"/>
<path d="M285.259 689.481L284.882 695.619H228.976L228.592 689.481H285.259Z" fill="#9D9CB5"/>
<path d="M284.718 698.182L284.341 704.313H229.517L229.134 698.182H284.718Z" fill="#9D9CB5"/>
<path d="M221.496 616.415C246.506 634.473 256.947 662.715 256.947 662.715C256.947 662.715 226.805 661.683 201.787 643.625C176.769 625.567 166.35 597.332 166.35 597.332C166.35 597.332 196.478 598.357 221.496 616.415Z" fill="#C6005C"/>
<path d="M166.329 597.332C166.329 597.332 197.621 614.659 207.657 629.005C217.693 643.352 256.946 662.715 256.946 662.715" stroke="#535461" stroke-width="2" stroke-miterlimit="10"/>
<path d="M237.642 580.04C251.253 589.861 256.946 605.233 256.946 605.233C256.946 605.233 240.539 604.673 226.921 594.851C213.302 585.029 207.623 569.65 207.623 569.65C207.623 569.65 224.023 570.211 237.642 580.04Z" fill="#C6005C"/>
<path d="M207.623 569.65C207.623 569.65 224.653 579.083 230.113 586.888C235.573 594.694 256.946 605.233 256.946 605.233" stroke="#535461" stroke-width="2" stroke-miterlimit="10"/>
<path d="M276.71 604.454C261.07 621.603 257.762 644.015 257.762 644.015C257.762 644.015 279.813 638.615 295.439 621.46C311.065 604.304 314.387 581.899 314.387 581.899C314.387 581.899 292.35 587.305 276.71 604.454Z" fill="#C6005C"/>
<path d="M314.401 581.906C314.401 581.906 294.028 599.485 288.849 611.597C283.67 623.708 257.762 644.015 257.762 644.015" stroke="#535461" stroke-width="2" stroke-miterlimit="10"/>
<path d="M850.817 598.419C850.817 598.419 839.507 542.277 843.836 535.291C843.836 535.291 843.994 528.798 843.734 520.521C843.734 520.207 843.734 519.892 843.734 519.571C844.495 520.078 845.289 520.534 846.111 520.938C850.1 522.983 854.679 523.573 859.058 522.606L855.633 518.799C854.811 517.89 853.954 516.905 853.776 515.702C853.598 514.499 854.092 513.426 854.516 512.353C857.77 504.151 857.941 493.837 851.673 487.576C846.378 482.314 845.09 475.52 839.343 470.715C835.143 467.195 832.835 462.034 830.656 457.045C828.813 452.828 826.957 448.576 825.902 444.106C825.08 440.613 824.751 436.998 823.621 433.587C822.49 430.176 820.374 426.861 817.065 425.337C815.887 424.797 814.578 424.49 813.503 423.772C812.092 422.822 811.242 421.277 810.221 419.924C805.036 413.089 787.67 417.115 779.449 419.89C777.214 420.589 775.145 421.733 773.366 423.253L773.441 423.13C773.503 423.027 773.578 422.925 773.647 422.822C772.747 423.548 771.97 424.413 771.345 425.385C770.146 427.278 769.646 429.486 768.646 431.537C767.44 433.963 760.734 440.736 763.618 443.464C763.82 443.647 764.052 443.795 764.303 443.901C765.386 444.351 766.578 444.47 767.728 444.243L767.605 444.537C766.62 446.943 766.115 449.518 766.118 452.117C766.118 463.347 775.401 472.451 786.861 472.451C789.016 472.453 791.158 472.123 793.212 471.473C793.26 471.733 793.301 471.993 793.349 472.252C793.349 472.355 793.383 472.458 793.397 472.56L793.034 473.066C793.015 473.035 792.995 473.005 792.972 472.977L782.217 487.973C780.573 489.128 771.105 495.963 770.571 501.089C770.009 506.701 769.448 513.269 769.448 513.269L769.372 514.677C768.902 515.069 768.353 515.354 767.761 515.514C767.17 515.673 766.551 515.702 765.947 515.6C762.59 515.053 762.59 527.903 762.59 527.903C762.59 527.903 760.357 529.953 758.823 528.176C757.288 526.399 753.233 532.421 753.233 532.421L727.818 533.514L727.235 533.548L725.865 529.318C725.718 528.871 725.4 528.501 724.98 528.287C724.561 528.074 724.074 528.034 723.625 528.176C723.519 528.211 723.416 528.254 723.317 528.306L723.221 528.361L723.043 528.484L722.954 528.566C722.905 528.61 722.859 528.658 722.817 528.709L722.735 528.805L722.693 528.846C722.535 529.064 722.43 529.316 722.388 529.582C722.345 529.848 722.365 530.12 722.447 530.377L723.625 534.006C718.72 534.991 713.706 537.766 717.795 545.407L697.066 541.586L703.773 547.205L738.395 554.334C737.936 555.154 738.237 556.343 739.669 558.018C745.834 565.242 757.069 567.204 761.59 567.71C762.784 570.375 764.276 572.897 766.036 575.228L765.646 582.425C765.646 582.425 754.199 637.283 752.102 640.065C753.161 638.868 754.129 637.596 755 636.257C751.678 647.528 747.033 662.955 745.814 665.265C743.854 668.956 742.039 683.89 744.272 684.847C744.957 685.141 746.917 684.998 749.712 684.786V686.023L749.588 732.904C749.588 732.904 750.15 761.659 748.609 764.399C747.067 767.14 746.656 772.888 746.656 772.888C746.656 772.888 740.491 784.228 735.606 788.786C735.573 788.822 735.536 788.854 735.497 788.882L735.346 787.816C735.346 787.816 729.475 795.211 716.487 794.794C716.487 794.794 708.671 799.866 720.262 800.139C731.852 800.413 746.656 799.729 746.656 799.729C746.656 799.729 756.994 784.009 765.652 786.059V797.973H768.304V785.868C769.533 785.06 770.585 784.012 771.397 782.787C772.208 781.561 772.761 780.184 773.023 778.739C773.25 777.249 773.084 775.727 772.541 774.321C771.998 772.915 771.097 771.674 769.927 770.722C769.401 770.248 768.98 769.67 768.689 769.025C768.397 768.381 768.243 767.683 768.235 766.976L768.139 767.058C768.139 766.819 768.078 766.573 768.05 766.32C767.29 760.169 766.337 747.476 769.701 738.085C774.311 725.208 775.709 707.273 772.352 696.596C771.269 693.184 770.379 689.713 769.687 686.201C769.605 685.756 769.53 685.332 769.461 684.936C771.756 685.246 774.028 685.702 776.264 686.303C784.039 688.442 801.049 688.839 815.572 688.723C815.606 689.119 815.647 689.536 815.695 689.953C815.954 692.851 816.495 695.717 817.312 698.51C819.134 703.978 819.97 728.085 819.97 728.085C819.97 728.085 822.319 747.907 821.038 755.972C820.353 760.456 819.668 764.96 819.278 769.485V769.573C819.278 769.573 815.428 780.509 812.612 786.449C812.544 786.599 812.468 786.75 812.4 786.893C811.649 786.961 810.91 787.125 810.201 787.378C810.201 787.378 806.426 794.897 802.665 796.141C798.904 797.385 800.151 801.479 808.666 799.975C817.181 798.472 830.04 797.241 830.04 797.241L830.595 789.573L833.211 786.305L832.526 793.954L835.314 793.407L834.945 784.105L839.226 778.76C839.226 778.76 844.398 774.167 836.712 765.131V765.329C836.63 765.199 836.554 765.062 836.465 764.932V764.891C835.191 762.923 834.177 759.253 836.034 752.739C839.39 740.969 841.343 730.286 841.343 730.286C841.343 730.286 848.837 701.668 839.829 688.128H840.226C839.303 686.223 838.651 684.198 838.288 682.113C838.242 681.867 838.201 681.614 838.164 681.355C844.83 680.972 851.372 679.769 856.708 677.172C856.688 677.144 853.475 609.232 850.817 598.419ZM766.194 551.053V551.189L764.824 551.258L766.194 551.053ZM761.494 551.702C761.269 551.752 761.058 551.852 760.878 551.996C760.289 552.828 759.919 553.794 759.802 554.805L757.665 554.327C757.665 554.327 756.165 554.005 754.007 553.643L752.986 552.618C755.795 552.386 758.713 552.044 761.494 551.702Z" fill="url(#paint1_linear_40_2)"/>
<path d="M832.211 784.2L831.396 793.885L834.129 793.338L833.718 782.833L832.211 784.2Z" fill="#1D2366"/>
<path d="M769.852 738.214C766.557 747.578 767.489 760.216 768.228 766.354C768.502 768.623 768.756 770.004 768.756 770.004C768.756 770.004 763.83 781.2 763.419 781.623C763.008 782.047 748.924 790.625 748.924 790.625L739.08 796.359C739.08 796.359 729.092 791.992 733.88 790.488C734.859 790.096 735.74 789.497 736.463 788.732C741.258 784.186 747.28 772.888 747.28 772.888C747.28 772.888 747.691 767.154 749.198 764.426C750.705 761.699 750.157 733.04 750.157 733.04L750.273 686.323V680.233L769.009 680.37C769.128 682.438 769.398 684.494 769.818 686.522C770.49 690.022 771.362 693.482 772.428 696.883C775.73 707.539 774.36 725.385 769.852 738.214Z" fill="#FFB0B1"/>
<path opacity="0.1" d="M768.756 770.004C768.756 770.004 763.83 781.2 763.419 781.623C763.008 782.047 748.924 790.625 748.924 790.625L739.08 796.36C739.08 796.36 729.092 791.992 733.88 790.488C734.859 790.097 735.74 789.497 736.463 788.732L736.888 791.719L740.169 791.582L768.256 766.368C768.502 768.623 768.756 770.004 768.756 770.004Z" fill="black"/>
<path d="M768.413 767.003L740.169 792.388L736.887 792.525L736.202 787.741C736.202 787.741 730.462 795.109 717.706 794.699C717.706 794.699 710.047 799.75 721.399 800.023C732.75 800.297 747.245 799.613 747.245 799.613C747.245 799.613 757.37 783.893 765.844 785.943V797.815H768.447V785.834C769.658 785.021 770.691 783.972 771.484 782.75C772.278 781.529 772.815 780.16 773.065 778.725C773.29 777.248 773.131 775.737 772.601 774.339C772.072 772.941 771.191 771.702 770.044 770.742C769.531 770.263 769.122 769.684 768.841 769.041C768.561 768.398 768.415 767.705 768.413 767.003Z" fill="#1D2366"/>
<path d="M834.814 752.814C832.992 759.307 833.986 762.964 835.232 764.926V764.967C836.831 767.389 837.943 770.098 838.507 772.943L838.616 773.558L825.765 792.252L818.791 794.986C818.791 794.986 807.577 791.165 809.625 790.072C810.139 789.805 810.941 788.383 811.859 786.422C814.599 780.509 818.38 769.601 818.38 769.601V769.512C818.778 765.008 819.408 760.517 820.107 756.047C821.36 748.002 819.058 728.256 819.058 728.256C819.058 728.256 818.236 704.245 816.455 698.784C815.651 696.007 815.117 693.16 814.859 690.281C814.489 686.864 814.407 684.048 814.407 684.048C814.407 684.048 821.792 673.795 835.328 684.868C836.411 685.751 837.363 686.782 838.157 687.93C847.508 701.203 839.98 730.443 839.98 730.443C839.98 730.443 838.096 741.079 834.814 752.814Z" fill="#FFB0B1"/>
<path opacity="0.1" d="M838.637 773.558L825.786 792.251L818.812 794.985C818.812 794.985 807.598 791.165 809.646 790.071C810.16 789.805 810.961 788.383 811.879 786.421C816.627 786.38 819.086 790.891 819.086 790.891L825.101 789.934C825.101 789.934 833.033 774.378 834.814 773.428C836.596 772.478 835.088 766.326 835.088 766.326V764.761C835.136 764.816 835.178 764.877 835.232 764.932V764.973C836.831 767.395 837.943 770.104 838.507 772.95L838.637 773.558Z" fill="black"/>
<path d="M819.497 791.295C819.497 791.295 816.072 785.02 809.509 787.337C809.509 787.337 805.817 794.856 802.124 796.072C798.432 797.289 799.665 801.39 808.009 799.893C816.352 798.396 828.93 797.159 828.93 797.159L829.478 789.511L837.959 778.732C837.959 778.732 843.014 774.159 835.493 765.158V766.723C835.493 766.723 837 772.874 835.219 773.824C833.437 774.775 825.532 790.338 825.532 790.338L819.497 791.295Z" fill="#1D2366"/>
<path opacity="0.1" d="M769.03 680.356C769.148 682.424 769.418 684.48 769.838 686.508C762.125 685.38 754.966 685.941 750.273 686.31V680.22L769.03 680.356Z" fill="black"/>
<path opacity="0.1" d="M838.918 689.632C838.918 689.632 827.957 690.165 814.887 690.274C814.517 686.857 814.435 684.041 814.435 684.041C814.435 684.041 821.819 673.788 835.356 684.861C836.438 685.744 837.391 686.775 838.185 687.923C838.397 688.506 838.642 689.076 838.918 689.632Z" fill="black"/>
<path d="M838.918 688.401C838.918 688.401 790.91 690.718 776.277 686.624C761.645 682.53 747.142 686.077 744.957 685.127C742.772 684.177 744.546 669.297 746.464 665.613C748.382 661.929 758.905 624.672 758.905 624.672L769.03 572.002L779.696 569.07L780.449 568.858L799.035 563.745L812.653 559.993C812.653 559.993 839.733 665.477 837.411 673.255C836.567 676.233 836.431 679.367 837.013 682.407C837.368 684.483 838.009 686.5 838.918 688.401Z" fill="#1D2366"/>
<path d="M733.736 535.981C733.736 535.981 724.146 546.234 731.407 551.948C738.669 557.662 743.443 552.495 743.443 552.495L733.736 535.981Z" fill="#C7DAF5"/>
<path opacity="0.1" d="M733.736 535.981C733.736 535.981 724.146 546.234 731.407 551.948C738.669 557.662 743.443 552.495 743.443 552.495L733.736 535.981Z" fill="black"/>
<path d="M811.222 468.575C811.222 468.575 810.098 469.642 808.406 471.214C805.995 473.462 802.426 476.75 799.261 479.504C794.877 483.311 791.259 486.107 792.554 483.722C793.849 481.336 793.602 477.18 792.958 473.291C792.91 473.032 792.869 472.772 792.821 472.519C792.288 469.663 791.581 466.842 790.705 464.071C790.705 464.071 797.788 454.94 801.706 451.337C803.166 449.971 804.186 449.41 804.248 450.36C804.316 451.638 805.275 454.461 806.467 457.455C806.502 457.55 806.536 457.639 806.577 457.735C807.372 459.786 808.269 461.891 809.057 463.709C810.263 466.497 811.222 468.575 811.222 468.575Z" fill="#FFB0B1"/>
<path opacity="0.1" d="M806.577 457.735C805.911 461.307 804.296 464.635 801.901 467.372C799.505 470.108 796.417 472.153 792.958 473.291C792.414 470.171 791.661 467.091 790.705 464.071C790.705 464.071 804.042 446.881 804.248 450.36C804.296 451.679 805.337 454.604 806.577 457.735Z" fill="black"/>
<path opacity="0.1" d="M791.629 477.884L793.356 475.458C793.356 475.458 794.5 482.416 798.706 479.347C802.912 476.278 803.118 502.442 803.118 502.442L798.603 569.787L765.981 567.839L766.906 535.298L770.599 518.894L779.73 495.047L785.163 487.166L791.629 477.884Z" fill="black"/>
<path d="M803.118 502.859L799.007 563.752L798.576 570.204L780.388 569.118L779.703 569.077L766.002 568.256L766.927 535.708L770.619 519.304L779.751 495.457L785.183 487.576L791.65 478.26L793.376 475.841C793.376 475.841 794.52 482.799 798.726 479.73L798.816 479.668C802.926 477.071 803.118 502.859 803.118 502.859Z" fill="#1D2366"/>
<path d="M771.078 513.604C771.078 513.604 769.44 517.021 766.152 516.468C762.864 515.914 762.871 528.771 762.871 528.771C762.871 528.771 760.686 530.821 759.179 529.044C757.671 527.267 753.698 533.275 753.698 533.275L728.804 534.369C728.804 534.369 739.881 539.42 737.709 554.703C737.709 554.703 775.318 552.379 776.551 548.831C777.784 545.284 771.078 513.604 771.078 513.604Z" fill="white"/>
<path opacity="0.03" d="M771.078 513.604C771.078 513.604 769.44 517.021 766.152 516.468C762.864 515.914 762.871 528.771 762.871 528.771C762.871 528.771 760.686 530.821 759.179 529.044C757.671 527.267 753.698 533.275 753.698 533.275L728.804 534.369C728.804 534.369 739.881 539.42 737.709 554.703C737.709 554.703 775.318 552.379 776.551 548.831C777.784 545.284 771.078 513.604 771.078 513.604Z" fill="black"/>
<path d="M698.73 542.399L705.293 547.99L759.316 559.316L752.616 552.495L698.73 542.399Z" fill="white"/>
<path d="M791.732 480.037C790.835 481.404 788.266 488.403 786.122 494.514C784.334 499.606 782.84 504.083 782.84 504.083C782.84 504.083 779.353 526.734 777.572 530.828C775.791 534.922 776.757 550.888 776.757 550.888L770.119 590.319C770.119 590.319 767.112 610.653 762.467 622.799C757.884 634.753 752.781 640.358 752.623 640.536C754.678 637.761 765.879 583.122 765.879 583.122L769.578 514.212C769.578 514.212 770.119 507.664 770.667 502.066C771.215 496.468 782.313 488.827 782.313 488.827L793.013 473.646C794.089 475.082 793.369 477.583 791.732 480.037Z" fill="white"/>
<path d="M763.83 568.598C763.83 568.598 748.074 567.915 740.443 558.769C732.811 549.624 758.083 555.12 758.083 555.12L764.652 556.623L763.83 568.598Z" fill="#FFB0B1"/>
<path opacity="0.1" d="M837.411 673.262C836.567 676.24 836.431 679.374 837.013 682.414C819.826 683.63 801.439 678.996 801.439 678.996C798.014 682.14 788.992 686.774 788.992 686.774L784.073 625.943C780.929 617.741 779.696 574.77 779.696 574.77C779.696 574.77 779.977 572.521 780.381 569.151C780.381 569.069 780.381 568.98 780.415 568.898C781.641 559.487 784.073 541.818 785.265 539.433C786.909 536.152 780.21 527.424 780.21 527.424L783.258 501.485L783.628 498.355C790.054 495.491 794.979 486.346 794.979 486.346L798.761 479.736C802.871 477.105 803.083 502.893 803.083 502.893L798.973 563.786L812.592 560.034C812.592 560.034 839.733 665.483 837.411 673.262Z" fill="black"/>
<path d="M855.05 677.465C836.314 686.747 802.261 678.149 802.261 678.149C798.836 681.293 789.814 685.927 789.814 685.927L784.888 625.096C781.751 616.894 780.518 573.922 780.518 573.922C780.518 573.922 784.477 541.859 786.121 538.585C786.601 537.629 786.368 536.207 785.799 534.676C783.004 527.389 781.976 519.545 782.799 511.786L784.114 500.638L784.477 497.514C790.91 494.643 795.835 485.498 795.835 485.498L799.26 479.511L805.563 468.479L808.55 463.257L809.056 463.715L812.927 467.215C812.927 467.215 814.571 468.582 817.037 470.632C822.401 475.143 831.67 483.086 836.451 487.945C840.657 492.224 841.986 508.867 842.37 521.396C842.624 529.645 842.473 536.111 842.473 536.111C838.232 543.076 849.323 598.993 849.323 598.993C851.906 609.799 855.05 677.465 855.05 677.465Z" fill="white"/>
<path opacity="0.03" d="M819.086 485.362C819.086 485.362 806.228 509.783 807.721 519.065C809.214 528.347 813.462 538.852 811.413 541.306C810.71 542.236 809.8 542.99 808.755 543.511C807.711 544.031 806.56 544.304 805.392 544.307C803.337 544.443 797.856 548.264 797.856 548.674C797.856 549.084 792.794 549.084 788.266 550.998C783.738 552.912 777.052 553.999 777.052 553.999C777.052 553.999 764.036 553.589 762.823 554.819C761.611 556.049 760.364 563.41 762.96 569.282C765.557 575.153 768.441 579.534 770.619 580.334C772.798 581.134 786.622 576.513 797.836 575.419C809.05 574.326 821.223 565.461 821.223 565.461C821.223 565.461 834.63 560.676 836.979 552.632C839.329 544.587 834.109 500.372 834.109 500.372C834.109 500.372 830.163 479.764 819.086 485.362Z" fill="black"/>
<path opacity="0.03" d="M817.442 483.311C817.442 483.311 804.583 507.739 806.09 517.014C807.597 526.29 811.831 536.802 809.776 539.262C809.075 540.193 808.166 540.948 807.123 541.469C806.079 541.99 804.928 542.262 803.761 542.263C801.706 542.4 796.226 546.22 796.226 546.63C796.226 547.04 791.163 547.04 786.635 548.947C782.107 550.854 775.421 551.948 775.421 551.948C775.421 551.948 762.405 551.538 761.2 552.768C759.994 553.998 758.733 561.367 761.337 567.231C763.94 573.095 766.817 577.483 768.995 578.283C771.174 579.083 784.998 574.462 796.212 573.376C807.426 572.289 819.599 563.41 819.599 563.41C819.599 563.41 832.999 558.626 835.321 550.588C837.644 542.55 832.451 498.321 832.451 498.321C832.451 498.321 828.519 477.72 817.442 483.311Z" fill="black"/>
<path d="M818.682 484.131C818.682 484.131 805.823 508.559 807.33 517.835C808.838 527.11 813.071 537.622 811.023 540.075C810.322 541.008 809.413 541.766 808.367 542.288C807.322 542.81 806.17 543.082 805.001 543.083C802.946 543.22 797.466 547.04 797.466 547.444C797.466 547.847 792.41 547.854 787.875 549.767C783.34 551.681 776.661 552.768 776.661 552.768C776.661 552.768 763.645 552.358 762.433 553.588C761.22 554.819 759.973 562.187 762.57 568.051C765.166 573.915 768.05 578.303 770.229 579.103C772.407 579.903 786.231 575.282 797.445 574.189C808.659 573.095 820.833 564.23 820.833 564.23C820.833 564.23 834.239 559.446 836.589 551.401C838.938 543.356 833.753 499.141 833.753 499.141C833.753 499.141 829.752 478.568 818.682 484.131Z" fill="white"/>
<path opacity="0.1" d="M818.401 549.652C818.401 549.652 808.125 547.601 811.701 551.019C815.277 554.436 815.256 557.43 819.634 557.293C824.011 557.156 818.401 549.652 818.401 549.652Z" fill="black"/>
<path opacity="0.1" d="M835.767 623.182C835.767 623.182 831.122 626.319 840.007 633.551C848.892 640.782 835.767 623.182 835.767 623.182Z" fill="black"/>
<path opacity="0.1" d="M826.902 648.97C826.902 649.38 825.258 664.007 831.41 667.664C837.561 671.321 826.902 648.97 826.902 648.97Z" fill="black"/>
<path d="M729.229 534.334C724.269 534.505 713.555 536.016 719.111 546.357C724.023 555.509 732.277 549.392 736.922 544.751C735.789 540.424 733.035 536.696 729.229 534.334Z" fill="#FFB0B1"/>
<path opacity="0.1" d="M817.037 471.049C811.776 474.638 807.365 477.665 806.501 478.294C804.145 480.037 799.651 490.269 796.753 495.491C794.445 499.695 786.943 500.775 784.114 501.041L784.477 497.917C790.91 495.047 795.835 485.902 795.835 485.902L808.55 463.661L812.927 467.632C812.927 467.632 814.571 468.999 817.037 471.049Z" fill="black"/>
<path d="M817.037 470.639C811.776 474.227 807.365 477.255 806.501 477.891C804.145 479.627 799.651 489.859 796.753 495.081C794.445 499.284 786.943 500.364 784.114 500.631L784.477 497.507C790.91 494.637 795.835 485.491 795.835 485.491L808.55 463.25L812.927 467.208C812.927 467.208 814.571 468.561 817.037 470.639Z" fill="#DCE7FF"/>
<path d="M806.913 453.224C806.916 457.327 805.668 461.334 803.337 464.713C800.583 468.709 796.485 471.588 791.786 472.827C787.086 474.066 782.098 473.583 777.725 471.466C773.352 469.349 769.885 465.739 767.952 461.289C766.019 456.84 765.749 451.846 767.19 447.215C768.631 442.584 771.689 438.622 775.808 436.047C779.927 433.473 784.834 432.457 789.64 433.184C794.445 433.911 798.83 436.332 802 440.009C805.169 443.686 806.912 448.374 806.913 453.224Z" fill="#FFB0B1"/>
<path opacity="0.1" d="M842.37 521.402C839.588 519.695 837.323 517.267 835.814 514.376C834.67 512.121 833.91 509.516 831.958 507.917C830.197 506.482 827.847 506.133 825.655 505.491C818.449 503.365 812.406 496.803 812.18 489.312C812.071 485.785 813.174 482.265 812.674 478.773C812.389 476.796 811.602 474.925 810.386 473.339C809.782 472.58 809.12 471.87 808.406 471.213C807.447 470.311 806.44 469.436 805.563 468.479C805.01 467.887 804.528 467.233 804.124 466.531C803.799 465.957 803.534 465.35 803.336 464.72C801.966 460.537 803.213 455.575 801.706 451.344L801.624 451.112C801.055 449.608 799.898 448.104 798.288 447.988C796.678 447.872 795.301 449.205 793.766 449.799C790.554 451.043 787.087 448.924 784.409 446.765C781.73 444.605 778.709 442.137 775.305 442.616C773.051 442.937 771.27 444.468 769.194 445.261C768.725 445.442 768.242 445.581 767.749 445.678C769.505 441.307 772.733 437.683 776.876 435.428C781.02 433.174 785.821 432.429 790.455 433.323C795.09 434.217 799.267 436.693 802.27 440.325C805.273 443.958 806.915 448.521 806.912 453.231C806.915 454.653 806.765 456.071 806.467 457.461C806.501 457.557 806.536 457.646 806.577 457.742C807.371 459.792 808.269 461.897 809.057 463.715L812.927 467.215C812.927 467.215 814.571 468.582 817.037 470.632C822.401 475.143 831.67 483.086 836.451 487.945C840.658 492.238 841.973 508.874 842.37 521.402Z" fill="black"/>
<path d="M768.954 432.774C769.934 430.785 770.42 428.556 771.592 426.67C773.311 423.936 776.312 422.186 779.394 421.127C787.444 418.359 804.453 414.34 809.536 421.127C810.536 422.494 811.365 424.011 812.749 424.954C813.804 425.672 815.078 425.98 816.236 426.52C819.476 428.037 821.545 431.345 822.648 434.722C823.751 438.098 824.08 441.721 824.888 445.2C825.922 449.663 827.738 453.894 829.546 458.097C831.677 463.059 833.937 468.206 838.048 471.712C843.658 476.497 844.898 483.27 850.104 488.52C856.27 494.753 856.071 505.04 852.893 513.208C852.475 514.281 852.002 515.402 852.166 516.543C852.331 517.684 853.18 518.723 853.982 519.632L857.352 523.426C849.378 525.346 840.356 521.191 836.643 513.898C835.499 511.642 834.739 509.045 832.78 507.439C831.026 506.003 828.669 505.662 826.484 505.019C819.278 502.887 813.235 496.318 813.009 488.827C812.9 485.307 814.003 481.787 813.503 478.301C813.224 476.311 812.434 474.427 811.208 472.833C809.324 470.38 806.481 468.732 804.946 465.998C802.35 461.426 804.323 455.486 802.453 450.579C801.877 449.075 800.727 447.571 799.117 447.455C797.507 447.339 796.13 448.672 794.589 449.266C791.383 450.51 787.916 448.398 785.238 446.232C782.559 444.065 779.538 441.604 776.127 442.09C773.873 442.404 772.099 443.935 770.023 444.735C768.488 445.323 765.378 445.849 764.036 444.557C761.2 441.953 767.769 435.207 768.954 432.774Z" fill="#591D4B"/>
<path opacity="0.1" d="M838.548 511.642C837.397 509.387 836.644 506.789 834.684 505.19C832.931 503.755 830.574 503.406 828.382 502.764C821.182 500.638 815.14 494.07 814.907 486.578C814.798 483.058 815.9 479.532 815.407 476.046C815.12 474.069 814.33 472.198 813.112 470.612C811.222 468.158 808.379 466.511 806.851 463.777C804.255 459.211 806.228 453.272 804.351 448.357C803.782 446.861 802.624 445.357 801.021 445.234C799.418 445.111 798.028 446.457 796.493 447.052C793.287 448.296 789.814 446.177 787.142 444.017C784.471 441.857 781.436 439.39 778.031 439.868C775.777 440.19 773.996 441.721 771.928 442.513C770.393 443.101 767.276 443.634 765.933 442.343C763.111 439.609 769.681 432.876 770.859 430.457C771.838 428.461 772.325 426.239 773.503 424.353C773.565 424.25 773.633 424.148 773.702 424.045C772.82 424.774 772.06 425.637 771.448 426.602C770.277 428.488 769.79 430.703 768.811 432.705C767.625 435.125 761.056 441.878 763.885 444.591C765.255 445.89 768.338 445.357 769.872 444.769C771.928 443.969 773.722 442.438 775.976 442.124C779.401 441.639 782.416 444.106 785.087 446.266C787.759 448.426 791.253 450.545 794.445 449.301C795.979 448.706 797.322 447.366 798.966 447.489C800.61 447.612 801.706 449.109 802.302 450.613C804.173 455.52 802.2 461.46 804.796 466.033C806.33 468.719 809.173 470.4 811.057 472.868C812.283 474.462 813.074 476.346 813.352 478.336C813.852 481.821 812.749 485.341 812.859 488.861C813.085 496.38 819.127 502.921 826.334 505.053C828.505 505.696 830.875 506.038 832.629 507.473C834.595 509.079 835.369 511.676 836.493 513.932C840.206 521.225 849.228 525.381 857.202 523.46L855.612 521.669C848.7 521.772 841.706 517.848 838.548 511.642Z" fill="black"/>
<path opacity="0.1" d="M791.321 480.447C790.424 481.814 787.855 488.813 785.711 494.924C783.704 494.145 781.881 489.176 781.881 489.176L792.582 473.988C793.678 475.492 792.958 477.987 791.321 480.447Z" fill="black"/>
<path d="M791.732 480.037C790.834 481.404 788.266 488.403 786.121 494.514C784.114 493.741 782.292 488.765 782.292 488.765L792.992 473.585C794.088 475.082 793.369 477.583 791.732 480.037Z" fill="#DCE7FF"/>
<path d="M729.516 549.863L723.584 531.197C723.514 530.978 723.487 530.748 723.507 530.519C723.526 530.291 723.59 530.068 723.696 529.864C723.801 529.66 723.946 529.479 724.122 529.331C724.298 529.184 724.502 529.072 724.721 529.003C725.163 528.865 725.641 528.907 726.051 529.12C726.462 529.332 726.772 529.698 726.913 530.137L732.846 548.783L732.257 552.686L729.516 549.863Z" fill="#BE8B87"/>
<path opacity="0.1" d="M724.146 529.556C724.588 529.417 725.068 529.458 725.48 529.671C725.892 529.883 726.203 530.25 726.345 530.691L732.277 549.337L731.832 552.262L732.264 552.713L732.853 548.811L726.886 530.165C726.744 529.725 726.435 529.36 726.024 529.147C725.613 528.935 725.135 528.893 724.694 529.03C724.322 529.15 724.002 529.391 723.783 529.714C723.899 529.651 724.021 529.599 724.146 529.556Z" fill="white"/>
<path d="M729.517 549.863L732.846 548.811L732.36 552.009L732.257 552.713L731.284 551.702L729.517 549.863Z" fill="#EFC8C4"/>
<path d="M731.284 551.702C731.342 551.629 731.414 551.568 731.496 551.524C731.544 551.494 731.6 551.478 731.657 551.478C731.714 551.478 731.77 551.494 731.818 551.524C731.865 551.58 731.904 551.642 731.934 551.709C731.98 551.784 732.041 551.848 732.115 551.897C732.188 551.945 732.272 551.977 732.359 551.989L732.256 552.672L731.284 551.702Z" fill="#727A9C"/>
<path d="M723.55 537.827C723.55 537.827 735.449 537.759 732.647 542.81C729.845 547.861 725.468 548.469 725.468 548.469L723.55 537.827Z" fill="#FFB0B1"/>
<path d="M649.545 311.146H649.031C628.589 311.146 610.511 321.938 600.112 337.863C589.713 321.938 571.635 311.146 551.193 311.146H550.679C535.338 311.291 520.675 317.472 509.876 328.344C499.076 339.216 493.014 353.902 493.005 369.209C493.005 388.217 501.349 415.187 517.619 437.38C548.617 479.668 600.112 516.666 600.112 516.666C600.112 516.666 651.606 479.675 682.598 437.38C698.874 415.187 707.211 388.217 707.211 369.209C707.203 353.903 701.142 339.219 690.344 328.347C679.546 317.475 664.884 311.293 649.545 311.146ZM642.194 440.634C639.866 440.625 637.595 439.914 635.679 438.594C633.764 437.274 632.293 435.407 631.459 433.238H619.238C618.433 433.233 617.65 432.978 616.998 432.507C616.346 432.037 615.857 431.375 615.601 430.614L611.847 419.329L599.968 460.742C599.737 461.54 599.252 462.24 598.588 462.74C597.923 463.239 597.114 463.509 596.282 463.511H596.043C595.175 463.469 594.347 463.131 593.699 462.554C593.051 461.976 592.621 461.195 592.48 460.339L580.239 386.877L571.292 430.347C571.087 431.173 570.61 431.907 569.939 432.431C569.267 432.955 568.439 433.239 567.586 433.238H550.371C549.855 433.26 549.34 433.178 548.856 432.996C548.373 432.814 547.932 432.536 547.559 432.179C547.186 431.823 546.889 431.395 546.687 430.921C546.484 430.447 546.38 429.936 546.38 429.421C546.38 428.906 546.484 428.396 546.687 427.922C546.889 427.448 547.186 427.02 547.559 426.663C547.932 426.306 548.373 426.029 548.856 425.847C549.34 425.665 549.855 425.582 550.371 425.604H564.572L577.245 367.158C577.453 366.294 577.956 365.529 578.666 364.993C579.377 364.458 580.253 364.185 581.142 364.223C582.032 364.26 582.882 364.604 583.545 365.197C584.209 365.79 584.646 366.594 584.781 367.472L597.283 442.411L607.928 405.359C608.15 404.578 608.618 403.89 609.264 403.398C609.91 402.905 610.698 402.634 611.511 402.625H611.586C612.391 402.625 613.176 402.879 613.828 403.35C614.48 403.821 614.966 404.486 615.217 405.249L622.006 425.624H631.309C631.97 423.619 633.174 421.836 634.787 420.47C636.4 419.105 638.36 418.211 640.451 417.886C642.541 417.562 644.681 417.821 646.633 418.633C648.586 419.445 650.276 420.78 651.516 422.49C652.756 424.2 653.499 426.219 653.662 428.323C653.825 430.428 653.402 432.536 652.439 434.416C651.477 436.296 650.013 437.874 648.209 438.976C646.405 440.078 644.33 440.661 642.215 440.661L642.194 440.634Z" fill="#C6005C"/>
</g>
<defs>
<linearGradient id="paint0_linear_40_2" x1="410.101" y1="805.621" x2="410.101" y2="385.038" gradientUnits="userSpaceOnUse">
<stop stop-color="#808080" stop-opacity="0.25"/>
<stop offset="0.54" stop-color="#808080" stop-opacity="0.12"/>
<stop offset="1" stop-color="#808080" stop-opacity="0.1"/>
</linearGradient>
<linearGradient id="paint1_linear_40_2" x1="778.038" y1="800.303" x2="778.038" y2="416.178" gradientUnits="userSpaceOnUse">
<stop stop-color="#808080" stop-opacity="0.25"/>
<stop offset="0.54" stop-color="#808080" stop-opacity="0.12"/>
<stop offset="1" stop-color="#808080" stop-opacity="0.1"/>
</linearGradient>
<clipPath id="clip0_40_2">
<rect width="757" height="535" fill="white" transform="translate(166 276)"/>
</clipPath>
</defs>
</svg>
